<svg width="160" height="253" fill="none" xmlns="http://www.w3.org/2000/svg"><path fill="#FFE17F" d="M0 0h160v160H0z"/><path d="M11.8 207.7c0 .8-.2 1.4-.6 1.9-.4.4-1 .8-1.6 1-.6.3-1.4.4-2.1.4H1.2v-12.8h7.1c.6 0 1.1.2 1.6.5.4.3.8.7 1 1.2.2.5.3 1 .3 1.6 0 .6-.1 1.2-.4 1.7-.3.6-.8 1-1.4 1.2.7.3 1.3.6 1.7 1.2.5.6.7 1.3.7 2.1Zm-7.6-7v2.7H7c.3 0 .6-.1.8-.3.3-.3.4-.6.4-1 0-.5-.1-.8-.3-1a1 1 0 0 0-.8-.4h-3Zm4.6 6.4c0-.4-.1-.7-.4-1a1 1 0 0 0-.8-.4H4.2v2.8h3.3c.3 0 .6-.1.9-.4.3-.2.4-.6.4-1ZM13 211v-9.4h2.8v5.6l3.7-5.6H22v9.4h-2.9v-5.5l-3.6 5.5H13Zm16.7.2c-.7 0-1.3-.2-1.9-.5-.5-.3-.9-.7-1.2-1.2v5.3h-2.9v-13.3h2.5v1.6c.4-.6.8-1 1.4-1.3.5-.3 1.1-.4 1.8-.4a4 4 0 0 1 2.3.6c.6.5 1.2 1 1.5 1.8.4.7.6 1.5.6 2.4 0 1-.2 1.8-.5 2.6-.4.7-.9 1.3-1.5 1.7-.6.5-1.3.7-2 .7Zm-1-2.4c.4 0 .8-.2 1.1-.4.4-.2.6-.5.8-1 .2-.3.3-.7.3-1.2 0-.7-.3-1.2-.7-1.7-.4-.5-1-.7-1.6-.7-.4 0-.8.1-1.2.4-.3.2-.6.5-.8 1v1.9l.9 1.2c.4.3.8.4 1.2.4ZM37 211v-7h-2.8v-2.4h8.6v2.5h-3v6.9H37Zm8.1 4.1h-.8l-1-.3.4-2.4 1.2.3c.6 0 1-.4 1.2-1.2l.2-.5-3.6-9.4h3l2.1 6.4 1.9-6.4h2.7L49 212.2c-.3 1-.8 1.7-1.5 2.2-.7.5-1.4.7-2.3.7Zm7.3-7c0-.5.1-1.1.5-1.6.3-.4.8-.8 1.4-1a6 6 0 0 1 4.2 0v-.5c0-1-.6-1.6-1.8-1.6-.6 0-1 0-1.5.3-.5.1-1 .4-1.5.7l-.9-1.8a7.3 7.3 0 0 1 4.1-1.2c1.5 0 2.6.3 3.3 1 .8.7 1.2 1.6 1.2 3v2.4l.1.6.5.2v2.4a9.8 9.8 0 0 1-1.2.1 2 2 0 0 1-1.2-.3c-.3-.2-.5-.5-.6-.9v-.4c-.4.6-1 1-1.5 1.3-.6.2-1.2.4-1.8.4-.7 0-1.2-.2-1.7-.4-.5-.3-1-.6-1.2-1-.3-.5-.4-1-.4-1.6Zm5.7.4c.3-.2.4-.5.4-.7v-.9l-.8-.2a4 4 0 0 0-.8 0c-.5 0-1 0-1.3.3a1 1 0 0 0-.5 1c0 .2.1.5.4.8.2.2.6.3 1 .3a2.4 2.4 0 0 0 1.6-.6Zm4.4 2.6v-2.5c.4 0 .7-.1 1-.3.3-.2.5-.6.6-1.2.2-.6.3-1.4.3-2.5l.2-3H72v9.4h-2.8v-7h-2l-.1 1a13 13 0 0 1-.6 3.7c-.4.9-.9 1.5-1.5 1.9a5 5 0 0 1-2.5.5Zm11.2-.1v-9.4h2.9v2.8h2c1.2 0 2 .3 2.6.9a3 3 0 0 1 1 2.3c0 1-.3 1.8-.9 2.5-.6.6-1.4.9-2.5.9h-5.1Zm2.9-2.2h1.7c.4 0 .7 0 1-.3l.2-.9c0-.3-.1-.6-.3-.8-.2-.3-.5-.4-.9-.4h-1.7v2.4Zm6.6 2.2v-9.4h2.9v3.4h3.2v-3.4h3v9.4h-3v-3.7h-3.2v3.7h-2.9Zm10-2.8c0-.6.2-1.2.6-1.7.3-.4.8-.8 1.4-1a6 6 0 0 1 4.2 0v-.5c0-1-.6-1.6-1.9-1.6-.5 0-1 0-1.5.3l-1.4.7-.9-1.8a7.3 7.3 0 0 1 4.1-1.2c1.4 0 2.5.3 3.3 1 .8.7 1.2 1.6 1.2 3v2.4l.1.6.5.2v2.4a9.8 9.8 0 0 1-1.2.1 2 2 0 0 1-1.2-.3c-.3-.2-.5-.5-.6-.9v-.4c-.4.6-1 1-1.5 1.3-.6.2-1.2.4-1.9.4-.6 0-1.1-.2-1.6-.4-.5-.3-1-.6-1.2-1-.3-.5-.4-1-.4-1.6Zm5.8.3c.3-.2.4-.5.4-.7v-.9l-.8-.2a4 4 0 0 0-.8 0c-.5 0-1 0-1.3.3a1 1 0 0 0-.5 1c0 .2.1.5.4.8.2.2.6.3 1 .3a2.4 2.4 0 0 0 1.6-.6Zm4.7 2.5 2.2-3.6c-.6-.2-1-.5-1.3-1-.3-.4-.4-1-.4-1.7s.1-1.2.4-1.7a3 3 0 0 1 1.2-1 4 4 0 0 1 1.8-.5h4.9v9.5h-2.9v-3.1h-1l-1.8 3.1h-3.1Zm4.3-5.1h1.6v-2.2h-1.5c-.4 0-.7 0-.9.3a1 1 0 0 0-.3.8c0 .3.1.5.3.7.2.3.5.4.8.4ZM7 235.2c-.7 0-1.4-.2-2-.5-.4-.3-.8-.7-1.1-1.2v5.3h-3v-13.3h2.6v1.6c.3-.6.8-1 1.3-1.3.5-.3 1.2-.4 1.9-.4a4 4 0 0 1 2.2.6c.7.5 1.2 1 1.6 1.8.4.7.6 1.5.6 2.4 0 1-.2 1.8-.6 2.6-.3.7-.8 1.3-1.4 1.7-.6.5-1.3.7-2.1.7Zm-1-2.4c.4 0 .8-.2 1-.4.4-.2.7-.5.8-1 .2-.3.3-.7.3-1.2 0-.7-.2-1.2-.6-1.7-.5-.5-1-.7-1.7-.7-.3 0-.7.1-1.1.4-.4.2-.6.5-.8 1v1.9c.2.4.4.8.8 1.2.4.3.8.4 1.3.4Zm10.7 2.4c-1.1 0-2-.2-2.8-.7a4.6 4.6 0 0 1-2.3-4.1c0-1 .2-1.8.6-2.5.4-.8 1-1.4 1.7-1.8.8-.5 1.7-.7 2.8-.7 1 0 2 .2 2.7.7.8.4 1.3 1 1.7 1.8a5 5 0 0 1 .5 3.3h-7c0 .6.3 1 .7 1.4a2.5 2.5 0 0 0 2.6.2c.4-.2.7-.5.8-.8l2.5.7c-.4.7-1 1.3-1.7 1.8-.8.4-1.8.7-2.8.7Zm-2.1-5.8h4c0-.6-.2-1-.6-1.4a2 2 0 0 0-1.4-.6 2 2 0 0 0-1.4.6c-.4.3-.6.8-.6 1.4Zm7.5 2.8c0-.6.1-1.2.5-1.7.3-.4.8-.8 1.4-1a6 6 0 0 1 4.2 0v-.5c0-1-.6-1.6-1.9-1.6-.5 0-1 0-1.5.3l-1.4.7-.9-1.8a7.3 7.3 0 0 1 4.1-1.2c1.4 0 2.5.3 3.3 1 .8.7 1.2 1.6 1.2 3v2.4l.1.6.5.2v2.4a9.8 9.8 0 0 1-1.2.1 2 2 0 0 1-1.2-.3c-.3-.2-.5-.5-.6-.9v-.4c-.4.6-1 1-1.5 1.3-.6.2-1.2.4-1.9.4-.6 0-1.1-.2-1.6-.4-.5-.3-1-.6-1.2-1-.3-.5-.4-1-.4-1.6Zm5.7.3c.3-.2.4-.5.4-.7v-.9l-.8-.2a4 4 0 0 0-.8 0c-.5 0-1 0-1.3.3a1 1 0 0 0-.5 1l.3.8c.3.2.7.3 1 .3a2.4 2.4 0 0 0 1.7-.6Zm4.4 2.6v-2.5c.4 0 .7-.1 1-.3.3-.2.5-.6.6-1.2.2-.6.3-1.4.3-2.5l.2-3h7.4v9.4h-2.9v-7h-2v1a13 13 0 0 1-.7 3.7c-.3.9-.8 1.5-1.4 1.9a5 5 0 0 1-2.5.5Zm11.2-.1v-9.4h2.9v2.8h2c1.1 0 2 .3 2.6.9a3 3 0 0 1 1 2.3c0 1-.3 1.8-.9 2.5-.6.6-1.4.9-2.5.9h-5.1Zm2.9-2.2H48c.4 0 .7 0 .9-.3.2-.2.3-.5.3-.9 0-.3-.1-.6-.3-.8-.2-.3-.5-.4-.9-.4h-1.7v2.4Zm6.6 2.2v-9.4h2.9v3.4H59v-3.4H62v9.4H59v-3.7h-3.2v3.7h-2.9Zm15.1.2c-1 0-2-.2-2.7-.7-.8-.5-1.3-1-1.7-1.8a5 5 0 0 1-.6-2.4c0-.9.2-1.7.6-2.4.4-.8 1-1.4 1.7-1.8.8-.5 1.7-.7 2.7-.7 1.1 0 2 .2 2.8.7.7.4 1.3 1 1.7 1.8.4.7.6 1.5.6 2.4a5 5 0 0 1-.6 2.4c-.4.7-1 1.3-1.7 1.8-.8.5-1.7.7-2.8.7Zm-2-5c0 .8.1 1.4.5 1.9.4.4 1 .7 1.5.7.6 0 1.1-.3 1.5-.7.4-.5.6-1 .6-1.8 0-.7-.2-1.3-.6-1.8-.4-.5-.9-.7-1.5-.7a2 2 0 0 0-1.5.7c-.4.5-.6 1-.6 1.8Zm12.7 5c-1 0-2-.2-2.8-.7a4.7 4.7 0 0 1-2.3-4.2 4.7 4.7 0 0 1 2.3-4.2c.8-.5 1.7-.7 2.8-.7 1 0 2 .2 2.7.7.8.4 1.3 1 1.7 1.8l-2.8.8c-.4-.6-1-.9-1.6-.9a2 2 0 0 0-1.5.7c-.4.4-.6 1-.6 1.8 0 .7.2 1.3.6 1.8.4.4.9.7 1.5.7.3 0 .7-.1 1-.3.3-.2.5-.4.6-.7l2.8.9c-.3.7-.9 1.3-1.6 1.8-.8.4-1.7.7-2.8.7Zm7.5-.2v-7h-2.9v-2.4H92v2.5h-2.8v6.9h-3Zm6.6 0v-9.4h2.9v2.8h2c1.2 0 2 .3 2.7.9a3 3 0 0 1 .9 2.3c0 1-.3 1.8-.9 2.5-.5.6-1.4.9-2.5.9h-5Zm2.9-2.2h1.7c.4 0 .7 0 1-.3l.2-.9c0-.3 0-.6-.3-.8-.2-.3-.5-.4-.9-.4h-1.7v2.4Z" fill="#000"/><g filter="url(#a)" fill="#363636"><path d="M116.1 85.6V73c0-1.3 1-2.4 2.4-2.4l8.3 1.6V64c0-2.3-1.7-3.4-4.2-4.2l-23.2-6.6c1.6 1.4 1.9 2 1.9 4.4v45.2c0 2.3-.5 4-2 5.2l23.3-7c2.4-1 4.2-4.3 4.2-6.6v-8l-8.3 1.6c-1.3 0-2.4-1-2.4-2.4Z"/><path d="m127.1 74-7.6-1.5c-1 0-1.8.9-1.8 1.9v9.9c0 1 .8 1.8 1.8 1.8l7.6-1.4c1.2-.4 1.9-.9 1.9-1.9v-7c0-1-.8-1.5-1.9-1.8ZM99.2 57.5c0-5.1-4.3-4.5-4.3-4.5s-57 4.7-60 5.1c-3 .5-2.9 4.4-2.9 4.4v36.3c0 3.8 2.6 3.8 2.6 3.8l16.5 1.4 8.1-11.7s1.1-1.8 2.5-1.8 2.4 1.8 2.4 1.8l9.1 13.6s19 1.9 22.5 1.9c3.7 0 3.5-5 3.5-5V57.4ZM45 90.2c-3.7 0-6.7-4.6-6.7-10.3 0-5.7 3-10.3 6.7-10.3s6.7 4.6 6.7 10.3c0 5.7-3 10.3-6.7 10.3ZM81 91.6c-4.6 0-8.4-5.2-8.4-11.7 0-6.4 3.8-11.7 8.4-11.7 4.7 0 8.5 5.3 8.5 11.7 0 6.5-3.8 11.7-8.5 11.7Z"/></g><defs><filter id="a" x="28" y="53" width="105" height="63" filterUnits="userSpaceOnUse" color-interpolation-filters="sRGB"><feFlood flood-opacity="0" result="BackgroundImageFix"/><feColorMatrix in="SourceAlpha" values="0 0 0 0 0 0 0 0 0 0 0 0 0 0 0 0 0 0 127 0" result="hardAlpha"/><feOffset dy="4"/><feGaussianBlur stdDeviation="2"/><feComposite in2="hardAlpha" operator="out"/><feColorMatrix values="0 0 0 0 0 0 0 0 0 0 0 0 0 0 0 0 0 0 0.25 0"/><feBlend in2="BackgroundImageFix" result="effect1_dropShadow"/><feBlend in="SourceGraphic" in2="effect1_dropShadow" result="shape"/></filter></defs></svg>