<svg width="160" height="253" fill="none" xmlns="http://www.w3.org/2000/svg"><path fill="#FFE17F" d="M0 0h160v160H0z"/><path d="M11.3 211v-7.6l-2.8 5.5H7l-2.7-5.5v7.6h-3v-12.8h3.2l3.3 6.7 3.4-6.7h3.2V211h-3Zm9.2.2c-1.1 0-2-.2-2.8-.7-.7-.5-1.3-1-1.7-1.8a5 5 0 0 1-.6-2.4c0-.9.2-1.7.6-2.4.4-.8 1-1.4 1.7-1.8.8-.5 1.7-.7 2.8-.7 1 0 2 .2 2.7.7.8.4 1.3 1 1.7 1.8.4.7.6 1.5.6 2.4a5 5 0 0 1-.6 2.4c-.4.7-1 1.3-1.7 1.8-.8.5-1.7.7-2.7.7Zm-2.1-5c0 .8.2 1.4.5 1.9.5.4 1 .7 1.6.7.5 0 1-.3 1.4-.7.4-.5.6-1 .6-1.8 0-.7-.2-1.3-.6-1.8-.4-.5-.9-.7-1.4-.7a2 2 0 0 0-1.6.7c-.3.5-.5 1-.5 1.8Zm8.2 4.8v-9.4h2.9v3.4h3.2v-3.4h2.9v9.4h-2.9v-3.7h-3.2v3.7h-2.9Zm15.1.2c-1 0-2-.2-2.7-.7-.8-.5-1.3-1-1.7-1.8a5 5 0 0 1-.6-2.4c0-.9.2-1.7.6-2.4.4-.8 1-1.4 1.7-1.8.7-.5 1.7-.7 2.7-.7 1.1 0 2 .2 2.8.7.7.4 1.3 1 1.7 1.8.4.7.6 1.5.6 2.4a5 5 0 0 1-.6 2.4c-.4.7-1 1.3-1.7 1.8-.8.5-1.7.7-2.8.7Zm-2-5c0 .8.1 1.4.5 1.9.4.4 1 .7 1.5.7.6 0 1.1-.3 1.5-.7.4-.5.6-1 .6-1.8 0-.7-.2-1.3-.6-1.8-.4-.5-.9-.7-1.5-.7a2 2 0 0 0-1.5.7c-.4.5-.6 1-.6 1.8Zm8.2 4.8v-9.4h8.8v9.4h-2.9v-7h-3v7h-3Zm15 .2c-1.1 0-2-.2-2.8-.7-.8-.5-1.3-1-1.7-1.8a5 5 0 0 1-.6-2.4c0-.9.2-1.7.6-2.4.4-.8 1-1.4 1.7-1.8.8-.5 1.7-.7 2.7-.7 1.1 0 2 .2 2.8.7.7.4 1.3 1 1.7 1.8.4.7.6 1.5.6 2.4a5 5 0 0 1-.6 2.4c-.4.7-1 1.3-1.7 1.8-.8.5-1.7.7-2.8.7Zm-2.2-5c0 .8.2 1.4.6 1.9.4.4 1 .7 1.5.7.6 0 1.1-.3 1.5-.7.4-.5.6-1 .6-1.8 0-.7-.2-1.3-.6-1.8-.4-.5-.9-.7-1.5-.7a2 2 0 0 0-1.5.7c-.4.5-.6 1-.6 1.8Zm7.7 7.1v-4.8h.2l.9-.3.6-1.2c.2-.5.3-1.3.3-2.4l.1-3H78v6.9h1.3v4.8h-2.5V211h-6v2.3h-2.4Zm3.7-4.8h3v-4.6h-2l-.1 1c0 1-.2 1.8-.3 2.4-.1.5-.3 1-.6 1.2Zm8.3 2.5v-9.4h3v2.8h1.4c1.2 0 2 .3 2.7.9a3 3 0 0 1 1 2.3c0 1-.4 1.8-1 2.5-.5.6-1.4.9-2.5.9h-4.6Zm9.4 0v-9.4h3v9.4h-3Zm-6.5-2.2h1.3c.4 0 .6 0 .8-.3.2-.2.3-.5.3-.9 0-.3 0-.6-.3-.8-.1-.3-.4-.4-.9-.4h-1.2v2.4Zm-83 28.5v-4.8h.4c.3 0 .5-.1.8-.3L2 231c.2-.5.3-1.3.3-2.4l.2-3H10v6.9h1.3v4.8H8.8V235H3v2.3H.4Zm3.9-4.8h3v-4.6H5l-.1 1c0 1-.2 1.8-.3 2.4-.1.5-.3 1-.5 1.2Zm7.6 2.6v-2.5c.4 0 .7-.1 1-.3.3-.2.5-.6.6-1.2.2-.6.3-1.4.3-2.5l.2-3h7.4v9.4h-2.8v-7h-2l-.1 1a13 13 0 0 1-.6 3.7c-.4.9-.9 1.5-1.5 1.9a5 5 0 0 1-2.5.5Zm10.8-.1 2.2-3.6c-.5-.2-1-.5-1.2-1-.3-.4-.5-1-.5-1.7s.2-1.2.5-1.7a3 3 0 0 1 1.2-1 4 4 0 0 1 1.8-.5h4.8v9.5h-2.9v-3.1h-1l-1.7 3.1h-3.2Zm4.4-5.1h1.5v-2.2H27c-.3 0-.6 0-.8.3a1 1 0 0 0-.3.8c0 .3 0 .5.2.7.2.3.5.4.9.4Zm14.4 5.3c-1 0-2-.2-2.7-.7a4.7 4.7 0 0 1-2.4-4.2 4.7 4.7 0 0 1 2.3-4.2c.8-.5 1.8-.7 2.8-.7 1.1 0 2 .2 2.8.7.7.4 1.3 1 1.6 1.8l-2.8.8c-.3-.6-.9-.9-1.6-.9a2 2 0 0 0-1.5.7c-.4.4-.6 1-.6 1.8 0 .7.2 1.3.6 1.8.4.4 1 .7 1.5.7.4 0 .7-.1 1-.3l.7-.7 2.8.9c-.4.7-1 1.3-1.7 1.8-.8.4-1.7.7-2.8.7Zm9.8 0c-1 0-2-.2-2.7-.7a4.6 4.6 0 0 1-2.3-4.1c0-1 .2-1.8.6-2.5.4-.8 1-1.4 1.7-1.8.7-.5 1.7-.7 2.7-.7 1.1 0 2 .2 2.8.7.7.4 1.3 1 1.7 1.8a5 5 0 0 1 .5 3.3h-7c0 .6.3 1 .7 1.4.4.3.9.5 1.4.5.4 0 .9 0 1.2-.3.4-.2.7-.5.8-.8l2.5.7c-.4.7-1 1.3-1.8 1.8-.8.4-1.7.7-2.8.7Zm-2-5.8h4c0-.6-.2-1-.6-1.4a2 2 0 0 0-1.4-.6 2 2 0 0 0-1.4.6c-.4.3-.6.8-.6 1.4Zm7.4 5.7v-2.5c.4 0 .7-.1 1-.3.2-.2.5-.6.6-1.2.2-.6.3-1.4.3-2.5l.1-3h7.5v9.4h-2.9v-7h-2v1a13 13 0 0 1-.7 3.7c-.3.9-.8 1.5-1.4 1.9a5 5 0 0 1-2.5.5Zm15.6 3.7V235H72c-1 0-2-.2-2.6-.6-.7-.5-1.3-1-1.6-1.8a5 5 0 0 1-.6-2.3c0-.9.2-1.6.6-2.4.3-.7.9-1.3 1.6-1.7.7-.4 1.5-.6 2.6-.6h.2v-3.7H75v3.7h.2c1 0 1.9.2 2.6.6.7.4 1.2 1 1.6 1.7.4.8.6 1.5.6 2.4a5 5 0 0 1-.6 2.3c-.4.7-.9 1.3-1.6 1.8-.7.4-1.6.6-2.6.6h-.2v3.8h-3Zm-.2-6h.4v-5H72c-.6 0-1 .3-1.4.7-.4.5-.6 1-.6 1.8 0 .7.2 1.3.6 1.7.3.5.8.7 1.4.7Zm3 0h.3c.6 0 1-.3 1.4-.8.4-.4.6-1 .6-1.7s-.2-1.3-.6-1.8c-.4-.4-.8-.6-1.4-.6H75v4.8ZM81 235v-9.4h3v5.6l3.6-5.6h2.6v9.4h-2.9v-5.5l-3.6 5.5h-2.7Z" fill="#000"/><g clip-path="url(#a)" fill="#363636"><path d="M119.8 47H40.3a3.2 3.2 0 0 0-3.2 3.2v46.4c0 1.8 1.5 3.2 3.2 3.2h79.5c1.8 0 3.2-1.4 3.2-3.2V50.2c0-1.8-1.4-3.2-3.2-3.2ZM45.4 80.2h-.2A3.2 3.2 0 0 1 42 77v-7.2c0-1.8 1.4-3.2 3.2-3.2h.2v13.6Zm61.2 15.2H50.3v-44h56.3v44Zm8.8-17.8a4.1 4.1 0 1 1 0-8.3 4.1 4.1 0 0 1 0 8.3ZM91.7 43H68.5v2.8h23.2V43ZM83.6 107.9v-3h8V102H68.6v2.8h8V140a6 6 0 0 0-3.6 5.6V160h14.3v-14.3a6 6 0 0 0-3.6-5.6v-28h4.8l5 1.3v-6.8l-5 1.3h-4.8Z"/></g><defs><clipPath id="a"><path fill="#fff" transform="translate(37 43)" d="M0 0h86v117H0z"/></clipPath></defs></svg>