<svg width="160" height="253" fill="none" xmlns="http://www.w3.org/2000/svg"><path fill="#FFE17F" d="M0 0h160v160H0z"/><path d="M1.3 211v-12.8h3v5h1l3.5-5H12l-4.6 6.2 5 6.6H8.9L5 205.9h-.9v5.1h-3Zm12.1 0v-9.4H19c.7 0 1.2 0 1.7.3a2 2 0 0 1 1.2 2c0 .5-.1 1-.4 1.3-.2.4-.6.7-1 1 .5.1 1 .4 1.3.7.3.4.5.9.5 1.5 0 1-.3 1.6-1 2-.6.4-1.5.6-2.7.6h-5Zm2.7-5.7h2c.3 0 .6 0 .7-.2.2-.2.3-.4.3-.7 0-.3-.1-.5-.3-.7a.9.9 0 0 0-.6-.2h-2v1.8Zm0 3.8h2.3c.3 0 .6-.1.7-.3.2-.2.3-.4.3-.7 0-.3 0-.5-.2-.7a1 1 0 0 0-.7-.3H16v2Zm6.8-1c0-.5.1-1.1.5-1.6.3-.4.8-.8 1.4-1a6 6 0 0 1 4.2 0v-.5c0-1-.6-1.6-1.9-1.6-.5 0-1 0-1.4.3-.5.1-1 .4-1.5.7l-.9-1.8a7.3 7.3 0 0 1 4.1-1.2c1.4 0 2.5.3 3.3 1 .8.7 1.2 1.6 1.2 3v2.4l.1.6.5.2v2.4a9.8 9.8 0 0 1-1.2.1 2 2 0 0 1-1.2-.3c-.3-.2-.5-.5-.6-.9v-.4c-.4.6-1 1-1.5 1.3-.6.2-1.2.4-1.8.4-.7 0-1.2-.2-1.7-.4-.5-.3-1-.6-1.2-1-.3-.5-.4-1-.4-1.6Zm5.7.4c.3-.2.4-.5.4-.7v-.9l-.8-.2a4 4 0 0 0-.8 0c-.5 0-1 0-1.3.3a1 1 0 0 0-.5 1c0 .2.1.5.4.8.2.2.6.3 1 .3a2.4 2.4 0 0 0 1.6-.6Zm4.4 4.8v-4.8h.3c.3 0 .6-.1.8-.3.3-.2.5-.6.7-1.2l.3-2.4.1-3h7.4v6.9H44v4.8h-2.5V211h-6v2.3H33Zm3.8-4.8h3v-4.6h-2l-.1 1-.3 2.4c-.2.5-.3 1-.6 1.2Zm14.3 2.7c-.7 0-1.4-.2-1.9-.5s-1-.7-1.2-1.2v5.3h-3v-13.3h2.6v1.6c.3-.6.8-1 1.3-1.3.5-.3 1.2-.4 1.9-.4a4 4 0 0 1 2.2.6c.7.5 1.2 1 1.6 1.8.4.7.6 1.5.6 2.4 0 1-.2 1.8-.6 2.6-.3.7-.8 1.3-1.4 1.7-.6.5-1.3.7-2.1.7Zm-1-2.4c.4 0 .8-.2 1.1-.4.3-.2.6-.5.8-1l.2-1.2c0-.7-.2-1.2-.6-1.7-.4-.5-1-.7-1.6-.7-.4 0-.8.1-1.2.4-.4.2-.6.5-.8 1v1.9l.8 1.2c.4.3.9.4 1.3.4Zm10.6 2.4c-1 0-2-.2-2.7-.7-.7-.5-1.3-1-1.7-1.8a5 5 0 0 1-.6-2.4c0-.9.2-1.7.6-2.4.4-.8 1-1.4 1.7-1.8.8-.5 1.7-.7 2.7-.7 1.1 0 2 .2 2.8.7.7.4 1.3 1 1.7 1.8.4.7.6 1.5.6 2.4a5 5 0 0 1-.6 2.4c-.4.7-1 1.3-1.7 1.8-.8.5-1.7.7-2.8.7Zm-2-5c0 .8.1 1.4.5 1.9.4.4 1 .7 1.5.7.6 0 1.1-.3 1.5-.7.4-.5.6-1 .6-1.8 0-.7-.2-1.3-.6-1.8-.4-.5-.9-.7-1.5-.7a2 2 0 0 0-1.5.7c-.4.5-.6 1-.6 1.8Zm8.2 4.8v-9.4h2.9v3.3h.6l2.4-3.3h3l-3.2 4.5 3.6 4.9H73l-2.5-3.6h-.6v3.6h-3Zm14.4.2c-1 0-2-.2-2.7-.7-.8-.5-1.4-1-1.7-1.8a5 5 0 0 1-.6-2.4c0-.9.2-1.7.6-2.4.3-.8 1-1.4 1.7-1.8.7-.5 1.6-.7 2.7-.7 1 0 2 .2 2.8.7.7.4 1.3 1 1.7 1.8.4.7.6 1.5.6 2.4a5 5 0 0 1-.6 2.4c-.4.7-1 1.3-1.7 1.8-.8.5-1.7.7-2.8.7Zm-2-5c0 .8.1 1.4.5 1.9.4.4 1 .7 1.5.7.6 0 1.1-.3 1.5-.7.4-.5.6-1 .6-1.8 0-.7-.2-1.3-.6-1.8-.4-.5-.9-.7-1.5-.7a2 2 0 0 0-1.5.7c-.4.5-.6 1-.6 1.8Zm8.2 4.8v-9.4h8.8v9.4h-2.9v-7h-3v7h-3Zm12.6 0v-7h-3v-2.4h8.7v2.5h-2.9v6.9h-2.8Zm11 .2c-1 0-2-.2-2.7-.7a4.6 4.6 0 0 1-2.3-4.1c0-1 .2-1.8.6-2.5.4-.8 1-1.4 1.7-1.8.8-.5 1.7-.7 2.8-.7 1 0 2 .2 2.7.7.8.4 1.3 1 1.7 1.8a5 5 0 0 1 .5 3.3h-7c.1.6.3 1 .7 1.4.5.3 1 .5 1.5.5.4 0 .8 0 1.2-.3.4-.2.6-.5.8-.8l2.4.7c-.4.7-1 1.3-1.7 1.8-.8.4-1.7.7-2.8.7Zm-2-5.8h4c0-.6-.2-1-.6-1.4a2 2 0 0 0-1.4-.6 2 2 0 0 0-1.4.6c-.3.3-.6.8-.6 1.4Zm14 5.8c-.7 0-1.3-.2-1.8-.5-.6-.3-1-.7-1.3-1.2v5.3h-2.8v-13.3h2.5v1.6c.3-.6.7-1 1.3-1.3.5-.3 1.1-.4 1.8-.4a4 4 0 0 1 2.3.6c.7.5 1.2 1 1.5 1.8.4.7.6 1.5.6 2.4 0 1-.2 1.8-.5 2.6-.3.7-.8 1.3-1.5 1.7-.6.5-1.3.7-2 .7Zm-1-2.4c.5 0 .8-.2 1.2-.4.3-.2.5-.5.7-1 .2-.3.3-.7.3-1.2 0-.7-.2-1.2-.7-1.7-.4-.5-1-.7-1.6-.7-.4 0-.8.1-1.1.4-.4.2-.7.5-.9 1v1.9l.9 1.2c.4.3.8.4 1.3.4Zm6.2 2.2v-9.4h3v2.8h1.4c1.2 0 2 .3 2.7.9a3 3 0 0 1 1 2.3c0 1-.4 1.8-1 2.5-.6.6-1.4.9-2.5.9h-4.6Zm9.4 0v-9.4h3v9.4h-3Zm-6.5-2.2h1.3c.3 0 .6 0 .8-.3.2-.2.3-.5.3-.9 0-.3 0-.6-.3-.8-.1-.3-.4-.4-.9-.4h-1.2v2.4Z" fill="#000"/><g clip-path="url(#a)" fill="#363636"><path d="M26 49.3c-5.5.4-10.2 1.6-11.4 2.6-.7.6-.7.6-.3 1.2.7.7 3.8 1.6 7.3 2.2 4 .7 12.5.7 13.7 0 1.2-.6 1.6-1.3 1.6-3 0-1.5-.6-2.3-2.2-2.8-1.4-.3-5.8-.5-8.6-.2ZM39.8 49.5c-.2.3-.3 2.1-.3 4.1 0 4 .2 3.8-2.2 4h-1l-.3 5.1-1.2.3c-2.5.6-4 2.6-3.7 5.3 0 1.9 1 3.3 2.5 4 1.1.6 1.5.6 11.3.6 5.5 0 10.1 0 10.2.2l-2.6 20.6-2.7 21.7c0 1.6.8 2.6 2.3 2.6 1.3 0 2-.6 2.4-1.9l3-21.8c1.5-11.5 2.8-20.9 3-20.9l2.1 3.2c3 4.6 2.4 4.3 7.6 4.3h4.4v5.6h-5.1c-4.8.2-5.2.2-6 .7-1.5 1.1-1.5 1.4-1.5 11 0 9.5 0 9.8 1.5 11l.8.7h31.4l.8-.7c1.5-1.2 1.6-1.5 1.6-11 0-9.6 0-9.9-1.7-11-.6-.5-1.1-.5-5.8-.6l-5.2-.1v-5.6h4.4c5.2 0 4.7.3 7.6-4.3 1.1-1.8 2.1-3.2 2.2-3.2l3 20.9c1.5 11.5 2.8 21.3 3 21.8.3 1.3 1 2 2.3 2 1.5 0 2.4-1.1 2.3-2.7l-2.7-21.7a900 900 0 0 1-2.5-20.6c0-.1 4.6-.2 10.1-.2 9.8 0 10.2 0 11.3-.5 1.5-.8 2.4-2.2 2.6-4.1a4.7 4.7 0 0 0-3.8-5.3l-1.2-.3-.3-5-1-.2c-2.3-.1-2.2.2-2.2-3.9l-.2-4.1c-.3-.4-.6-.5-1.4-.5-.6 0-1.3.1-1.4.3-.2.2-.3 1.5-.3 4 0 2.4-.1 3.7-.4 3.9-.1.2-.9.3-1.6.3-1.6 0-1.7 0-1.7 3V63h-67v-2.3c0-3 0-3.1-1.7-3.1-.7 0-1.4-.1-1.6-.3-.2-.2-.3-1.5-.3-4 0-2.4-.1-3.7-.3-3.9-.2-.2-.8-.3-1.5-.3-.8 0-1.1.1-1.3.5Zm42.8 40.1c3 1 5.4 3.4 6.2 6.2a11 11 0 0 1-.3 5.8c-.7 1.8-2.7 4-4.6 4.9-1.3.6-1.7.7-3.9.7s-2.6 0-4-.7c-1.8-1-3.8-3-4.5-5a11 11 0 0 1-.3-5.7 9.6 9.6 0 0 1 6.1-6.2c2-.6 3.3-.6 5.3 0Z"/><path d="M77.8 93.4c-2 1-3.5 3.7-3 5.8a5.4 5.4 0 0 0 8 3.7c2-1.2 3-3.6 2.4-5.8a5.4 5.4 0 0 0-5.2-4.2c-.6 0-1.6.3-2.2.5ZM50 49.2c-3.8.6-4.4 1-4.4 3.4 0 1.8.4 2.4 2.2 3 1.6.4 7.2.5 10.5 0 7-.7 11.4-2.5 9.7-3.7-1.2-.9-4.9-1.8-9-2.4a66 66 0 0 0-9-.3ZM103.5 49.3c-6.3.5-11.9 2-11.9 3.1 0 1.8 7.9 3.5 15.7 3.5 5.8 0 7.1-.6 7.1-3.3 0-1.8-.6-2.6-2.3-3-1.7-.5-5.7-.6-8.6-.3ZM126.8 49.3c-1.8.2-3 .8-3.5 1.5-.3.7-.3 2.9.2 3.5 1 1.4 1.7 1.5 7 1.5 3.7 0 5.9-.1 8-.5 3.5-.6 6.5-1.5 7.2-2.2.5-.6.5-.6-.3-1.2-1.3-1.1-6-2.2-11.9-2.6-3.4-.3-4.5-.3-6.7 0Z"/></g><defs><clipPath id="a"><path fill="#fff" transform="translate(14 49)" d="M0 0h132v69H0z"/></clipPath></defs></svg>