<svg width="160" height="253" fill="none" xmlns="http://www.w3.org/2000/svg"><path fill="#FFE17F" d="M0 0h160v160H0z"/><path d="M6.1 211v-1.2c-.7 0-1.4-.1-2.1-.4-.7-.3-1.3-.7-1.8-1.2a5.3 5.3 0 0 1-1.7-4A5.4 5.4 0 0 1 4 199c.7-.2 1.4-.4 2.1-.4v-1h2.8v1a6.3 6.3 0 0 1 3.9 1.6 5.3 5.3 0 0 1 1.7 4 5.3 5.3 0 0 1-1.7 4 6.2 6.2 0 0 1-4 1.6v1.2H6.2Zm0-3.5v-6.6c-.4 0-.9.2-1.3.5s-.8.6-1 1.1c-.2.5-.4 1-.4 1.7s.2 1.3.4 1.7c.3.5.6.9 1 1.1.5.3 1 .4 1.4.5Zm2.7 0c.5 0 1-.2 1.4-.5.4-.2.7-.6 1-1 .2-.5.4-1.1.4-1.8s-.2-1.2-.4-1.7c-.3-.5-.6-.8-1-1.1a3 3 0 0 0-1.4-.5v6.6Zm6.8 3.5v-9.4h2.8v5.6l3.7-5.6h2.6v9.4h-2.9v-5.5l-3.6 5.5h-2.6Zm12.9 0v-7h-2.9v-2.4h8.6v2.5h-2.9v6.9h-2.8Zm6.6 0v-9.4H38v3.4h3.2v-3.4H44v9.4h-3v-3.7H38v3.7h-3Zm15.1.2c-1 0-2-.2-2.7-.7a4.6 4.6 0 0 1-2.3-4.1c0-1 .2-1.8.5-2.5.4-.8 1-1.4 1.8-1.8.7-.5 1.6-.7 2.7-.7s2 .2 2.8.7c.7.4 1.3 1 1.7 1.8a5 5 0 0 1 .5 3.3h-7c0 .6.3 1 .7 1.4.4.3.9.5 1.4.5.4 0 .8 0 1.2-.3.4-.2.7-.5.8-.8l2.5.7c-.4.7-1 1.3-1.8 1.8-.8.4-1.7.7-2.8.7Zm-2-5.8h4c0-.6-.2-1-.6-1.4a2 2 0 0 0-1.4-.6 2 2 0 0 0-1.4.6c-.4.3-.6.8-.7 1.4Zm12.5 5.8c-1 0-2-.2-2.7-.7a4.7 4.7 0 0 1-2.3-4.2c0-.9.2-1.7.5-2.4.5-.8 1-1.4 1.8-1.8.8-.5 1.7-.7 2.7-.7 1.1 0 2 .2 2.8.7.7.4 1.3 1 1.7 1.8l-2.8.8c-.4-.6-1-.9-1.7-.9a2 2 0 0 0-1.5.7c-.4.4-.6 1-.6 1.8 0 .7.2 1.3.6 1.8.4.4 1 .7 1.5.7.4 0 .7-.1 1-.3l.7-.7 2.8.9c-.4.7-1 1.3-1.7 1.8-.8.4-1.7.7-2.8.7Zm5.4-3.9v-2.5h5.5v2.5h-5.5Zm12 3.9c-1.7 0-3-.5-3.8-1.5-.8-1-1.3-2.4-1.3-4.3 0-1.5.2-2.7.6-3.6.3-1 .9-1.6 1.6-2.1.8-.5 1.7-.9 2.8-1.1l4-1 .1 2.3-4 1c-.9.2-1.5.6-2 1.1-.6.5-1 1.2-1 2.1.4-.5.9-1 1.5-1.3a5 5 0 0 1 2.3-.5c.8 0 1.6.2 2.2.5.6.4 1.1.9 1.5 1.5.3.6.5 1.4.5 2.2a5 5 0 0 1-.5 2.4c-.4.7-1 1.3-1.8 1.7-.7.4-1.6.6-2.7.6Zm0-2.4a2 2 0 0 0 1.5-.6c.4-.4.6-1 .6-1.6a2 2 0 0 0-2.1-2 2 2 0 0 0-1.5.6 2 2 0 0 0-.6 1.4c0 .7.2 1.2.6 1.6.3.4.9.6 1.5.6Zm12 2.4c-.6 0-1.3-.2-1.8-.5s-1-.7-1.2-1.2v5.3h-3v-13.3h2.6v1.6c.3-.6.8-1 1.3-1.3.5-.3 1.2-.4 1.9-.4a4 4 0 0 1 2.2.6c.7.5 1.2 1 1.6 1.8.4.7.6 1.5.6 2.4 0 1-.2 1.8-.6 2.6-.3.7-.8 1.3-1.4 1.7-.6.5-1.3.7-2.1.7Zm-1-2.4c.5 0 .9-.2 1.2-.4.3-.2.6-.5.7-1 .2-.3.3-.7.3-1.2 0-.7-.2-1.2-.6-1.7-.4-.5-1-.7-1.6-.7-.4 0-.8.1-1.2.4-.4.2-.6.5-.8 1v1.9l.8 1.2c.4.3.9.4 1.3.4Zm5.6-.6c0-.6.2-1.2.6-1.7.3-.4.8-.8 1.4-1a6 6 0 0 1 4.2 0v-.5c0-1-.6-1.6-1.9-1.6-.5 0-1 0-1.5.3l-1.4.7-.9-1.8a7.3 7.3 0 0 1 4.1-1.2c1.4 0 2.5.3 3.3 1 .8.7 1.2 1.6 1.2 3v2.4l.1.6.5.2v2.4a9.8 9.8 0 0 1-1.2.1 2 2 0 0 1-1.3-.3c-.2-.2-.4-.5-.5-.9v-.4c-.4.6-1 1-1.5 1.3-.6.2-1.2.4-1.9.4-.6 0-1.1-.2-1.6-.4-.5-.3-1-.6-1.2-1-.3-.5-.5-1-.5-1.6Zm5.8.3c.3-.2.4-.5.4-.7v-.9l-.8-.2a4 4 0 0 0-.8 0c-.5 0-1 0-1.3.3a1 1 0 0 0-.5 1c0 .2 0 .5.3.8.3.2.7.3 1 .3.4 0 .7 0 1-.2l.7-.4Zm9.5 2.7c-1 0-2-.2-2.7-.7a4.7 4.7 0 0 1-2.3-4.2 4.7 4.7 0 0 1 2.3-4.2c.8-.5 1.7-.7 2.7-.7 1.1 0 2 .2 2.8.7.7.4 1.3 1 1.7 1.8l-2.8.8c-.4-.6-1-.9-1.7-.9a2 2 0 0 0-1.5.7c-.4.4-.6 1-.6 1.8 0 .7.2 1.3.6 1.8.4.4 1 .7 1.5.7.4 0 .7-.1 1-.3l.7-.7 2.8.9c-.4.7-1 1.3-1.7 1.8-.7.4-1.7.7-2.8.7Zm4.8 0v-2.6c.4 0 .7-.1 1-.3.3-.2.5-.6.6-1.2.2-.6.3-1.4.3-2.5l.2-3h7.4v9.4h-2.9v-7h-2v1a13 13 0 0 1-.7 3.7c-.3.9-.8 1.5-1.4 1.9a5 5 0 0 1-2.5.5Zm15.7 0c-1 0-2-.2-2.7-.7a4.6 4.6 0 0 1-2.4-4.1c0-1 .2-1.8.6-2.5.4-.8 1-1.4 1.7-1.8.8-.5 1.7-.7 2.8-.7 1 0 2 .2 2.7.7.8.4 1.4 1 1.7 1.8a5 5 0 0 1 .6 3.3h-7c0 .6.3 1 .7 1.4.4.3.9.5 1.4.5.4 0 .8 0 1.2-.3.4-.2.6-.5.8-.8l2.4.7c-.3.7-1 1.3-1.7 1.8-.8.4-1.7.7-2.8.7Zm-2-5.8h4c0-.6-.3-1-.7-1.4a2 2 0 0 0-1.3-.6 2 2 0 0 0-1.4.6c-.4.3-.6.8-.7 1.4Zm10.1 5.6v-7h-2.9v-2.4h8.6v2.5h-2.8v6.9h-2.9Zm6.6 0v-9.4h2.9v2.8h1.5c1.2 0 2 .3 2.7.9a3 3 0 0 1 .9 2.3c0 1-.3 1.8-.9 2.5-.6.6-1.4.9-2.5.9h-4.6Zm9.4 0v-9.4h2.9v9.4h-2.9Zm-6.5-2.2h1.2c.4 0 .7 0 1-.3l.2-.9c0-.3 0-.6-.3-.8-.2-.3-.5-.4-.9-.4h-1.2v2.4Z" fill="#000"/><g clip-path="url(#a)" fill="#363636"><path d="M125 54c.7 1.5 1.2 3.2 1.2 4.9v21c0 4.7-3.1 8.6-7.3 10-1.3 4-3.7 7.8-8 10.4-8.7 5.3-31.1 4.9-31.2 4.9-.1 0-22.5.4-31.2-4.9a18.7 18.7 0 0 1-8-10.3 10.5 10.5 0 0 1-7.8-10V58.9c0-1.7.4-3.3 1.1-4.7-3.6 1-7.8 2.7-7.8 6.2v30c0 10.3 11.8 24.4 53.7 24.4 41.8 0 53.6-14.1 53.6-24.4v-30c0-3.6-4.6-5.5-8.3-6.3Z"/><path d="M46.6 88.5H112a10 10 0 0 0 10-10.1V59.9a10 10 0 0 0-10-10H46.6a10 10 0 0 0-10.1 10v18.5a10 10 0 0 0 10 10Zm63-29a1.6 1.6 0 1 1 0 3.1 1.6 1.6 0 0 1 0-3.1Zm0 4a1.6 1.6 0 1 1 .1 3.1 1.6 1.6 0 0 1 0-3Zm0 4a1.6 1.6 0 1 1 .1 3.2 1.6 1.6 0 0 1 0-3.2Zm0 3.9a1.6 1.6 0 1 1 0 3.1 1.6 1.6 0 0 1 0-3.1Zm0 4a1.6 1.6 0 1 1 .1 3.1 1.6 1.6 0 0 1 0-3Zm-4-16a1.6 1.6 0 1 1 0 3.2 1.6 1.6 0 0 1 0-3.1Zm0 16a1.6 1.6 0 1 1 0 3.1 1.6 1.6 0 0 1 0-3Zm-4-16a1.6 1.6 0 1 1 0 3.2 1.6 1.6 0 0 1 0-3.1Zm0 4.1a1.6 1.6 0 1 1 0 3.1 1.6 1.6 0 0 1 0-3Zm0 4a1.6 1.6 0 1 1 0 3.2 1.6 1.6 0 0 1 0-3.2Zm0 3.9a1.6 1.6 0 1 1 0 3.1 1.6 1.6 0 0 1 0-3.1Zm0 4a1.6 1.6 0 1 1 0 3.1 1.6 1.6 0 0 1 0-3Zm-7.6-16a1.6 1.6 0 1 1 0 3.2 1.6 1.6 0 0 1 0-3.1Zm0 8.1a1.6 1.6 0 1 1 0 3.2 1.6 1.6 0 0 1 0-3.2Zm0 4a1.6 1.6 0 1 1 0 3 1.6 1.6 0 0 1 0-3Zm0 4a1.6 1.6 0 1 1 0 3 1.6 1.6 0 0 1 0-3Zm-4-16a1.6 1.6 0 1 1 0 3.1 1.6 1.6 0 0 1 0-3.1Zm0 8a1.6 1.6 0 1 1 0 3.2 1.6 1.6 0 0 1 0-3.2Zm0 8a1.6 1.6 0 1 1 0 3 1.6 1.6 0 0 1 0-3Zm-4.1-16a1.6 1.6 0 1 1 0 3.1 1.6 1.6 0 0 1 0-3.1Zm0 4a1.6 1.6 0 1 1 0 3.1 1.6 1.6 0 0 1 0-3Zm0 4a1.6 1.6 0 1 1 0 3.2 1.6 1.6 0 0 1 0-3.2Zm0 8a1.6 1.6 0 1 1 0 3 1.6 1.6 0 0 1 0-3Zm-8.3-16a1.6 1.6 0 1 1 0 3.1 1.6 1.6 0 0 1 0-3.1Zm0 4a1.6 1.6 0 1 1 0 3.1 1.6 1.6 0 0 1 0-3Zm0 4a1.6 1.6 0 1 1 0 3.2 1.6 1.6 0 0 1 0-3.2Zm0 4a1.6 1.6 0 1 1 0 3 1.6 1.6 0 0 1 0-3Zm0 4a1.6 1.6 0 1 1 0 3 1.6 1.6 0 0 1 0-3Zm-4-12a1.6 1.6 0 1 1 0 3.1 1.6 1.6 0 0 1 0-3Zm-8.5-.2a1.6 1.6 0 1 1 0 3.1 1.6 1.6 0 0 1 0-3.1Zm0 4a1.6 1.6 0 1 1 0 3.2 1.6 1.6 0 0 1 0-3.2Zm-4-8a1.6 1.6 0 1 1 0 3 1.6 1.6 0 0 1 0-3Zm0 4a1.6 1.6 0 1 1 0 3.1 1.6 1.6 0 0 1 0-3.1Zm0 4a1.6 1.6 0 1 1 0 3.2 1.6 1.6 0 0 1 0-3.2Zm0 4a1.6 1.6 0 1 1 0 3.2 1.6 1.6 0 0 1 0-3.1Zm-4.3-8a1.6 1.6 0 1 1 0 3.1 1.6 1.6 0 0 1 0-3.1Zm0 4a1.6 1.6 0 1 1 0 3.2 1.6 1.6 0 0 1 0-3.2Zm0 4a1.6 1.6 0 1 1 0 3.2 1.6 1.6 0 0 1 0-3.1Zm0 4.1a1.6 1.6 0 1 1 0 3.1 1.6 1.6 0 0 1 0-3Zm-4.5-16.1a1.6 1.6 0 1 1 0 3.1 1.6 1.6 0 0 1 0-3.1Zm0 4a1.6 1.6 0 1 1 0 3.1 1.6 1.6 0 0 1 0-3.1Zm0 4a1.6 1.6 0 1 1 0 3.2 1.6 1.6 0 0 1 0-3.2Zm0 4a1.6 1.6 0 1 1 0 3.2 1.6 1.6 0 0 1 0-3.1Zm-4-8a1.6 1.6 0 1 1 0 3.1 1.6 1.6 0 0 1 0-3.1Zm0 4a1.6 1.6 0 1 1 0 3.2 1.6 1.6 0 0 1 0-3.2Z"/></g><defs><clipPath id="a"><path fill="#fff" transform="translate(26 50)" d="M0 0h107v65H0z"/></clipPath></defs></svg>