<svg width="161" height="253" fill="none" xmlns="http://www.w3.org/2000/svg"><path fill="#FFE17F" d="M1 0h160v160H1z"/><path d="M3.4 211.1v-2.4h1.1c.3 0 .6 0 .7-.2.2-.1.3-.3.4-.6l.2-.4-5-9.3h3.3l3 6.3 2.6-6.3h3.1l-5 11c-.3.8-.7 1.2-1.1 1.5-.5.3-1 .4-1.8.4H3.4Zm10-.1v-9.4h3l2.6 5 2.7-5h3v9.4h-2.8v-5.5l-2 3.8H18l-2-3.8v5.5h-2.8Zm12.9 0v-9.4h2.9v3.4h3.2v-3.4h2.9v9.4h-2.9v-3.7h-3.2v3.7h-2.9Zm10.6 0v-9.4h3v2.8h1.5c1.1 0 2 .3 2.6.9a3 3 0 0 1 1 2.3c0 1-.4 1.8-1 2.5-.5.6-1.4.9-2.5.9H37Zm9.4 0v-9.4h3v9.4h-3Zm-6.5-2.2h1.3c.4 0 .7 0 .8-.3.2-.2.3-.5.3-.9 0-.3 0-.6-.3-.8-.1-.3-.4-.4-.9-.4h-1.2v2.4Zm15.6 2.4c-1 0-2-.2-2.8-.7a4.6 4.6 0 0 1-2.3-4.1c0-1 .2-1.8.6-2.5.4-.8 1-1.4 1.7-1.8.8-.5 1.7-.7 2.8-.7 1 0 2 .2 2.7.7.8.4 1.3 1 1.7 1.8a5 5 0 0 1 .5 3.3h-7c.1.6.3 1 .7 1.4.5.3 1 .5 1.5.5.4 0 .8 0 1.2-.3.4-.2.6-.5.8-.8l2.4.7c-.4.7-1 1.3-1.7 1.8-.8.4-1.7.7-2.8.7Zm-2.1-5.8h4c0-.6-.2-1-.6-1.4a2 2 0 0 0-1.4-.6 2 2 0 0 0-1.4.6c-.3.3-.6.8-.6 1.4Zm17.1 5.6v-3.2a5 5 0 0 1-2.2.4c-1 0-1.8-.2-2.4-.7-.6-.6-.8-1.4-.8-2.4v-3.5h2.8v3.1c0 1 .5 1.4 1.3 1.4.5 0 1-.1 1.3-.3v-4.3h2.9v9.5h-2.9Zm4-2.8c0-.6.1-1.2.5-1.7.3-.4.8-.8 1.4-1a6 6 0 0 1 4.2 0v-.5c0-1-.6-1.6-1.9-1.6-.5 0-1 0-1.5.3l-1.4.7-.9-1.8a7.3 7.3 0 0 1 4.1-1.2c1.4 0 2.5.3 3.3 1 .8.7 1.2 1.6 1.2 3v2.4l.1.6.5.2v2.4a9.8 9.8 0 0 1-1.2.1 2 2 0 0 1-1.2-.3c-.3-.2-.5-.5-.6-.9v-.4c-.4.6-1 1-1.5 1.3-.6.2-1.2.4-1.8.4-.7 0-1.2-.2-1.7-.4-.5-.3-1-.6-1.2-1-.3-.5-.4-1-.4-1.6Zm5.7.3c.3-.2.4-.5.4-.7v-.9l-.8-.2a4 4 0 0 0-.8 0c-.5 0-1 0-1.3.3a1 1 0 0 0-.5 1c0 .2.1.5.4.8.2.2.6.3 1 .3a2.4 2.4 0 0 0 1.6-.6Zm9.6 2.7c-1.1 0-2-.2-2.8-.7a4.7 4.7 0 0 1-2.3-4.2 4.7 4.7 0 0 1 2.3-4.2c.8-.5 1.7-.7 2.8-.7 1 0 2 .2 2.7.7.7.4 1.3 1 1.7 1.8l-2.8.8c-.4-.6-1-.9-1.7-.9a2 2 0 0 0-1.5.7c-.4.4-.6 1-.6 1.8 0 .7.2 1.3.6 1.8.5.4 1 .7 1.5.7.4 0 .7-.1 1-.3l.7-.7 2.8.9c-.3.7-.9 1.3-1.7 1.8-.7.4-1.7.7-2.7.7Zm5.4-.2v-9.4h2.8v2.8h1.6c1.1 0 2 .3 2.6.9a3 3 0 0 1 1 2.3c0 1-.4 1.8-1 2.5-.5.6-1.4.9-2.4.9H95Zm9.4 0v-9.4h2.8v9.4h-2.8Zm-6.6-2.2h1.3c.4 0 .7 0 .9-.3.2-.2.3-.5.3-.9 0-.3-.1-.6-.3-.8-.2-.3-.5-.4-1-.4H98v2.4Z" fill="#000"/><g clip-path="url(#a)" fill="#363636"><path d="M108.5 63.2H107v-4.6c0-5-4.1-9.2-9.1-9.2H63.1c-5 0-9.1 4.1-9.1 9.2v42.8c0 5 4 9.2 9 9.2H98c5 0 9-4.1 9-9.2V98h1.6c.4 0 .8-.3.8-.8V83.5c0-.5-.4-.8-.8-.8H107v-8.8h1.5c.8 0 1.5-.7 1.5-1.5v-7.7c0-.8-.7-1.5-1.5-1.5ZM88 60.1a5.3 5.3 0 0 1 0 10.7c-3 0-5.3-2.4-5.3-5.4 0-3 2.4-5.3 5.3-5.3Zm-15.2 0a5.3 5.3 0 0 1 0 10.7c-2.9 0-5.3-2.4-5.3-5.4 0-3 2.4-5.3 5.3-5.3ZM59.3 80.4c0-3 2.4-5.4 5.3-5.4 3 0 5.3 2.4 5.3 5.4 0 3-2.4 5.4-5.3 5.4-3 0-5.3-2.4-5.3-5.4Zm13.6 19.5c-2.9 0-5.3-2.4-5.3-5.4 0-3 2.4-5.3 5.3-5.3a5.3 5.3 0 0 1 0 10.7Zm1.5-20a6 6 0 0 1 6-6 6 6 0 0 1 6.1 6 6 6 0 0 1-6 6.2 6 6 0 0 1-6-6.1Zm13.7 20c-3 0-5.3-2.4-5.3-5.4 0-3 2.4-5.3 5.3-5.3a5.3 5.3 0 0 1 0 10.7Zm8.3-14.1c-3 0-5.3-2.4-5.3-5.4 0-3 2.4-5.4 5.3-5.4 3 0 5.3 2.4 5.3 5.4 0 3-2.4 5.4-5.3 5.4ZM63.6 46.3h33.7c.9 0 1.5-.7 1.3-1.5L97 34c-.2-1.6-1.8-3-3.5-3h-26a3.7 3.7 0 0 0-3.5 3l-1.7 10.8c0 .8.5 1.5 1.3 1.5ZM97.3 113.7H63.6c-.8 0-1.4.7-1.3 1.5L64 126c.2 1.6 1.8 3 3.5 3h26c1.7 0 3.3-1.4 3.5-3l1.6-10.8c.2-.8-.4-1.5-1.3-1.5Z"/></g><defs><clipPath id="a"><path fill="#fff" transform="translate(54 31)" d="M0 0h56v98H0z"/></clipPath></defs></svg>