<svg width="160" height="253" fill="none" xmlns="http://www.w3.org/2000/svg"><path fill="#FFE17F" d="M0 0h160v160H0z"/><path d="M5.9 211.1a6 6 0 0 1-3.3-.8 6.5 6.5 0 0 1-2-2.1l2.4-1.5a3.2 3.2 0 0 0 2.9 1.8 3 3 0 0 0 2.3-.9c.5-.5.9-1.2 1-2H5v-2.2h4.3c-.2-.7-.6-1.4-1.1-1.9a3 3 0 0 0-2.2-.7 3.1 3.1 0 0 0-2.9 1.8l-2.3-1.7c.5-.8 1.2-1.5 2-2a6 6 0 0 1 3.2-.8 6.3 6.3 0 0 1 4.7 2c.6.6 1 1.3 1.3 2.1a6.9 6.9 0 0 1-1.3 7 6.2 6.2 0 0 1-4.7 2Zm7.5-.1v-9.4h2.8v3.3h.7l2.3-3.3h3.1l-3.2 4.5 3.6 4.9h-3.3l-2.6-3.6h-.6v3.6h-2.8Zm10.4 0v-9.4h2.9v6.9h2.6v-7H32v7h2.7v-7h2.8v9.5H23.8Zm15.5 0v-9.4h2.9v3.4h3.2v-3.4h2.9v9.4h-3v-3.7h-3.1v3.7h-3Zm10.6-3.7v-2.5h5.5v2.5H50ZM57 211v-9.4h2.8v3.3h.7l2.3-3.3H66l-3.2 4.5 3.6 4.9H63l-2.6-3.6H60v3.6h-2.8Zm9.6-2.8c0-.6.2-1.2.5-1.7a5 5 0 0 1 3.5-1.5 6 6 0 0 1 2.2.4v-.4c0-1-.6-1.6-1.9-1.6-.5 0-1 0-1.5.3l-1.4.7-1-1.8a7.3 7.3 0 0 1 4.2-1.2c1.4 0 2.5.3 3.3 1 .8.7 1.2 1.6 1.2 3v2.4l.1.6.5.2v2.4a9.8 9.8 0 0 1-1.2.1 2 2 0 0 1-1.3-.3c-.3-.2-.4-.5-.5-.9v-.4a4.2 4.2 0 0 1-3.3 1.7c-.7 0-1.3-.2-1.8-.4-.5-.3-.9-.6-1.1-1-.3-.5-.5-1-.5-1.6Zm5.7.3c.3-.2.5-.5.5-.7v-.9l-.8-.2a4 4 0 0 0-.8 0c-.6 0-1 0-1.4.3a1 1 0 0 0-.5 1l.4.8c.3.2.6.3 1 .3a2.4 2.4 0 0 0 1.6-.6Zm5.1 2.5v-9.4h3l2.7 5 2.7-5h3v9.4H86v-5.5l-2 3.8h-1.8l-2-3.8v5.5h-2.8Zm17.5.2c-1 0-2-.2-2.7-.7a4.6 4.6 0 0 1-2.4-4.1c0-1 .2-1.8.6-2.5.4-.8 1-1.4 1.7-1.8.8-.5 1.7-.7 2.8-.7 1 0 2 .2 2.7.7.8.4 1.4 1 1.7 1.8a5 5 0 0 1 .6 3.3h-7c0 .6.3 1 .7 1.4.4.3.9.5 1.4.5.4 0 .8 0 1.2-.3.4-.2.6-.5.8-.8l2.4.7c-.3.7-1 1.3-1.7 1.8-.8.4-1.7.7-2.8.7Zm-2-5.8h4c0-.6-.3-1-.6-1.4a2 2 0 0 0-1.4-.6 2 2 0 0 0-1.4.6c-.4.3-.6.8-.7 1.4Zm14 5.8c-.7 0-1.4-.2-2-.5-.4-.3-.8-.7-1.1-1.2v5.3h-3v-13.3h2.6v1.6c.3-.6.8-1 1.3-1.3.5-.3 1.1-.4 1.9-.4a4 4 0 0 1 2.2.6c.7.5 1.2 1 1.6 1.8.4.7.5 1.5.5 2.4 0 1-.1 1.8-.5 2.6-.3.7-.8 1.3-1.4 1.7-.6.5-1.3.7-2.1.7Zm-1-2.4c.4 0 .8-.2 1-.4.4-.2.7-.5.8-1 .2-.3.3-.7.3-1.2 0-.7-.2-1.2-.6-1.7-.5-.5-1-.7-1.7-.7-.3 0-.7.1-1.1.4-.4.2-.6.5-.8 1v1.9c.2.4.4.8.8 1.2.4.3.8.4 1.3.4Zm6.2 2.2v-9.4h2.8v2.8h1.6c1.1 0 2 .3 2.6.9a3 3 0 0 1 1 2.3c0 1-.4 1.8-1 2.5-.5.6-1.4.9-2.5.9h-4.5Zm9.4 0v-9.4h2.8v9.4h-2.8Zm-6.6-2.2h1.3c.4 0 .7 0 .9-.3.2-.2.3-.5.3-.9 0-.3-.1-.6-.3-.8-.2-.3-.5-.4-1-.4H115v2.4Z" fill="#000"/><g clip-path="url(#a)" fill="#363636"><path d="M102.3 39.5c0-.7-.5-1.5-1.3-1.5H58c-.7 0-1.3.8-1.3 1.5V43h45.6v-3.5ZM103.2 119.8h-9.6v-10.4h-7v2.5H67.8a3.5 3.5 0 0 0-3.2-2.1h-12c-2 0-3.6 1.6-3.6 3.5v3c0 2 1.6 3.5 3.6 3.5h12c1.5 0 2.8-.9 3.3-2.3h18.7v2.3h-9.5c-.5 0-1 .4-1 1v3.2c0 .5.5 1 1 1h26.1c.5 0 1-.5 1-1v-3.2c0-.6-.5-1-1-1ZM109.7 50.4a7 7 0 0 0-6.8-5H56a7 7 0 0 0-7.1 7v46.9c0 3.9 3.3 7 7.1 7H103c3.9 0 7.1-3.1 7.1-7V88.9a23.2 23.2 0 0 0-.3-38.5Zm-48.5 49.8a6 6 0 1 1 0-11.9 6 6 0 0 1 0 11.9Zm6-32.7c0 .8-.6 1.5-1.4 1.5h-9c-.7 0-1.4-.7-1.4-1.5V53.4c0-.8.7-1.4 1.4-1.4h9c.8 0 1.4.6 1.4 1.4v14.1ZM96.8 90a20 20 0 1 1 0-40.2 20 20 0 0 1 0 40.2Z"/><path d="M96.8 82a12.2 12.2 0 1 0 0-24.5 12.2 12.2 0 0 0 0 24.5ZM80.6 71.2a1.4 1.4 0 1 0 0-2.9 1.4 1.4 0 0 0 0 2.9ZM113 71.2a1.4 1.4 0 1 0 0-2.9 1.4 1.4 0 0 0 0 2.9ZM88.1 57.4a1.4 1.4 0 1 0 0-2.8 1.4 1.4 0 0 0 0 2.8ZM105.4 85a1.4 1.4 0 1 0 0-3 1.4 1.4 0 0 0 0 3ZM104.7 57a1.4 1.4 0 1 0 0-2.9 1.4 1.4 0 0 0 0 2.9ZM88.8 85.3a1.4 1.4 0 1 0 0-2.8 1.4 1.4 0 0 0 0 2.8Z"/></g><defs><clipPath id="a"><path fill="#fff" transform="translate(49 38)" d="M0 0h71v87H0z"/></clipPath></defs></svg>